<svg width="25.000000" height="25.000000" viewBox="0 0 25 25" fill="none" xmlns="http://www.w3.org/2000/svg" xmlns:xlink="http://www.w3.org/1999/xlink">
	<path d="M21.87 0L3.12 0C1.4 0 0 1.4 0 3.12L0 21.87C0 23.59 1.4 25 3.12 25L21.87 25C23.59 25 25 23.59 25 21.87L25 3.12C25 1.4 23.59 0 21.87 0Z" fill="#1976D2" fill-opacity="1.000000" fill-rule="nonzero"/>
	<path d="M21.09 12.5L17.18 12.5L17.18 9.37C17.18 8.51 17.88 8.59 18.75 8.59L20.31 8.59L20.31 4.68L17.18 4.68C14.59 4.68 12.5 6.78 12.5 9.37L12.5 12.5L9.37 12.5L9.37 16.4L12.5 16.4L12.5 25L17.18 25L17.18 16.4L19.53 16.4L21.09 12.5Z" fill="#FAFAFA" fill-opacity="1.000000" fill-rule="nonzero"/>
</svg>
