<svg width="35.052307" height="20.000000" viewBox="0 0 35.0523 20" fill="none" xmlns="http://www.w3.org/2000/svg" xmlns:xlink="http://www.w3.org/1999/xlink">
	<path id="Vector" d="M17.15 19.91L19.24 19.91C19.24 19.91 19.87 19.84 20.2 19.49C20.49 19.17 20.48 18.57 20.48 18.57C20.48 18.57 20.44 15.76 21.75 15.35C23.03 14.94 24.69 18.06 26.44 19.27C27.76 20.18 28.76 19.98 28.76 19.98L33.45 19.91C33.45 19.91 35.9 19.76 34.73 17.83C34.64 17.68 34.06 16.41 31.25 13.81C28.32 11.08 28.71 11.52 32.25 6.81C34.4 3.94 35.26 2.19 34.99 1.44C34.74 0.72 33.15 0.91 33.15 0.91L27.89 0.94C27.89 0.94 27.5 0.89 27.2 1.06C26.92 1.24 26.74 1.63 26.74 1.63C26.74 1.63 25.91 3.85 24.79 5.74C22.45 9.73 21.51 9.94 21.12 9.69C20.23 9.11 20.45 7.37 20.45 6.13C20.45 2.27 21.04 0.66 19.31 0.25C18.74 0.11 18.32 0.01 16.85 0C14.97 -0.02 13.38 0.01 12.48 0.45C11.88 0.74 11.42 1.4 11.7 1.43C12.05 1.48 12.84 1.64 13.26 2.21C13.8 2.95 13.78 4.6 13.78 4.6C13.78 4.6 14.09 9.15 13.05 9.71C12.34 10.1 11.36 9.31 9.27 5.69C8.2 3.84 7.39 1.79 7.39 1.79C7.39 1.79 7.23 1.41 6.96 1.21C6.62 0.96 6.15 0.88 6.15 0.88L1.14 0.91C1.14 0.91 0.39 0.93 0.11 1.26C-0.14 1.55 0.09 2.15 0.09 2.15C0.09 2.15 4.01 11.32 8.45 15.95C12.52 20.19 17.15 19.91 17.15 19.91Z" fill="#1E88E5" fill-opacity="1.000000" fill-rule="nonzero"/>
</svg>
